<svg width="40" height="40" viewBox="0 0 40 40" fill="none" xmlns="http://www.w3.org/2000/svg">
<rect width="40" height="40" rx="6" fill="white"/>
<path d="M17.795 27.5C18.3826 28.0186 19.1544 28.3333 19.9998 28.3333C20.8452 28.3333 21.6171 28.0186 22.2047 27.5M24.9998 16.6667C24.9998 15.3406 24.473 14.0688 23.5353 13.1311C22.5977 12.1934 21.3259 11.6667 19.9998 11.6667C18.6737 11.6667 17.402 12.1934 16.4643 13.1311C15.5266 14.0688 14.9998 15.3406 14.9998 16.6667C14.9998 19.2418 14.3502 21.005 13.6245 22.1712C13.0124 23.1549 12.7064 23.6467 12.7176 23.784C12.73 23.9359 12.7622 23.9938 12.8846 24.0846C12.9952 24.1667 13.4936 24.1667 14.4905 24.1667H25.5091C26.506 24.1667 27.0044 24.1667 27.115 24.0846C27.2374 23.9938 27.2696 23.9359 27.282 23.784C27.2933 23.6467 26.9872 23.1549 26.3751 22.1712C25.6494 21.005 24.9998 19.2418 24.9998 16.6667Z" stroke="#667085" stroke-width="1.66667" stroke-linecap="round" stroke-linejoin="round"/>
</svg>
