<svg width="40" height="40" viewBox="0 0 40 40" fill="none" xmlns="http://www.w3.org/2000/svg">
<rect width="40" height="40" rx="6" fill="white"/>
<g clip-path="url(#clip0_70_1355)">
<path d="M19.9998 22.5C21.3805 22.5 22.4998 21.3807 22.4998 20C22.4998 18.6193 21.3805 17.5 19.9998 17.5C18.6191 17.5 17.4998 18.6193 17.4998 20C17.4998 21.3807 18.6191 22.5 19.9998 22.5Z" stroke="#667085" stroke-width="1.66667" stroke-linecap="round" stroke-linejoin="round"/>
<path d="M25.6059 22.2727C25.5051 22.5012 25.475 22.7547 25.5195 23.0004C25.5641 23.2462 25.6812 23.473 25.8559 23.6515L25.9014 23.697C26.0422 23.8377 26.154 24.0048 26.2302 24.1887C26.3065 24.3727 26.3457 24.5698 26.3457 24.7689C26.3457 24.968 26.3065 25.1652 26.2302 25.3491C26.154 25.5331 26.0422 25.7002 25.9014 25.8409C25.7606 25.9818 25.5935 26.0935 25.4096 26.1698C25.2257 26.246 25.0285 26.2853 24.8294 26.2853C24.6303 26.2853 24.4331 26.246 24.2492 26.1698C24.0652 26.0935 23.8981 25.9818 23.7574 25.8409L23.712 25.7954C23.5334 25.6208 23.3066 25.5036 23.0609 25.4591C22.8151 25.4145 22.5617 25.4446 22.3332 25.5454C22.1091 25.6415 21.918 25.8009 21.7834 26.0042C21.6488 26.2074 21.5766 26.4456 21.5756 26.6894V26.8182C21.5756 27.22 21.416 27.6054 21.1318 27.8895C20.8477 28.1737 20.4623 28.3333 20.0604 28.3333C19.6586 28.3333 19.2732 28.1737 18.9891 27.8895C18.7049 27.6054 18.5453 27.22 18.5453 26.8182V26.75C18.5394 26.4992 18.4583 26.256 18.3123 26.052C18.1664 25.848 17.9625 25.6926 17.7271 25.6061C17.4986 25.5052 17.2451 25.4751 16.9994 25.5197C16.7536 25.5642 16.5269 25.6814 16.3483 25.8561L16.3029 25.9015C16.1622 26.0424 15.995 26.1541 15.8111 26.2304C15.6272 26.3066 15.43 26.3459 15.2309 26.3459C15.0318 26.3459 14.8346 26.3066 14.6507 26.2304C14.4667 26.1541 14.2996 26.0424 14.1589 25.9015C14.0181 25.7608 13.9063 25.5937 13.83 25.4097C13.7538 25.2258 13.7146 25.0287 13.7146 24.8295C13.7146 24.6304 13.7538 24.4333 13.83 24.2493C13.9063 24.0654 14.0181 23.8983 14.1589 23.7576L14.2044 23.7121C14.379 23.5336 14.4962 23.3068 14.5407 23.061C14.5853 22.8153 14.5552 22.5618 14.4544 22.3333C14.3584 22.1093 14.1989 21.9182 13.9956 21.7836C13.7924 21.649 13.5542 21.5767 13.3104 21.5757H13.1817C12.7798 21.5757 12.3944 21.4161 12.1103 21.132C11.8261 20.8478 11.6665 20.4624 11.6665 20.0606C11.6665 19.6588 11.8261 19.2734 12.1103 18.9892C12.3944 18.7051 12.7798 18.5454 13.1817 18.5454H13.2498C13.5006 18.5396 13.7438 18.4584 13.9478 18.3125C14.1518 18.1666 14.3072 17.9627 14.3938 17.7273C14.4946 17.4988 14.5247 17.2453 14.4801 16.9995C14.4356 16.7538 14.3184 16.527 14.1438 16.3485L14.0983 16.303C13.9574 16.1623 13.8457 15.9952 13.7694 15.8113C13.6932 15.6273 13.6539 15.4302 13.6539 15.2311C13.6539 15.0319 13.6932 14.8348 13.7694 14.6508C13.8457 14.4669 13.9574 14.2998 14.0983 14.1591C14.239 14.0182 14.4061 13.9065 14.5901 13.8302C14.774 13.754 14.9712 13.7147 15.1703 13.7147C15.3694 13.7147 15.5666 13.754 15.7505 13.8302C15.9344 13.9065 16.1015 14.0182 16.2423 14.1591L16.2877 14.2045C16.4663 14.3792 16.693 14.4963 16.9388 14.5409C17.1845 14.5855 17.438 14.5554 17.6665 14.4545H17.7271C17.9512 14.3585 18.1423 14.199 18.2769 13.9958C18.4115 13.7925 18.4837 13.5544 18.4847 13.3106V13.1818C18.4847 12.78 18.6443 12.3946 18.9285 12.1104C19.2126 11.8263 19.598 11.6667 19.9998 11.6667C20.4017 11.6667 20.7871 11.8263 21.0712 12.1104C21.3554 12.3946 21.515 12.78 21.515 13.1818V13.25C21.516 13.4938 21.5882 13.7319 21.7228 13.9352C21.8574 14.1384 22.0485 14.2979 22.2726 14.3939C22.5011 14.4948 22.7545 14.5249 23.0003 14.4803C23.246 14.4357 23.4728 14.3186 23.6514 14.1439L23.6968 14.0985C23.8375 13.9576 24.0046 13.8458 24.1886 13.7696C24.3725 13.6933 24.5697 13.6541 24.7688 13.6541C24.9679 13.6541 25.1651 13.6933 25.349 13.7696C25.5329 13.8458 25.7 13.9576 25.8407 14.0985C25.9816 14.2392 26.0934 14.4063 26.1696 14.5902C26.2459 14.7742 26.2851 14.9713 26.2851 15.1704C26.2851 15.3696 26.2459 15.5667 26.1696 15.7507C26.0934 15.9346 25.9816 16.1017 25.8407 16.2424L25.7953 16.2879C25.6206 16.4664 25.5035 16.6932 25.4589 16.9389C25.4144 17.1847 25.4444 17.4382 25.5453 17.6667V17.7273C25.6413 17.9513 25.8008 18.1424 26.004 18.277C26.2073 18.4116 26.4455 18.4839 26.6892 18.4848H26.818C27.2199 18.4848 27.6052 18.6445 27.8894 18.9286C28.1735 19.2128 28.3332 19.5981 28.3332 20C28.3332 20.4018 28.1735 20.7872 27.8894 21.0714C27.6052 21.3555 27.2199 21.5151 26.818 21.5151H26.7498C26.5061 21.5161 26.2679 21.5883 26.0646 21.723C25.8614 21.8576 25.7019 22.0487 25.6059 22.2727Z" stroke="#667085" stroke-width="1.66667" stroke-linecap="round" stroke-linejoin="round"/>
</g>
<defs>
<clipPath id="clip0_70_1355">
<rect width="20" height="20" fill="white" transform="translate(10 10)"/>
</clipPath>
</defs>
</svg>
